<svg width="48" height="48" viewBox="0 0 48 48" fill="none" xmlns="http://www.w3.org/2000/svg">
<path d="M4.26358 21.13C4.62728 20.1502 5.56215 19.5 6.60733 19.5H29.8712C30.9544 19.5 31.9144 20.1975 32.249 21.2277L33.8729 26.2277C34.3975 27.843 33.1935 29.5 31.4952 29.5H4.7514C3.00944 29.5 1.80148 27.7631 2.40765 26.13L4.26358 21.13Z" stroke="#152C5B" stroke-width="3"/>
<mask id="path-2-inside-1_36_558" fill="white">
<path d="M7.5 40C9.433 40 11 38.433 11 36.5L11 29C11 28.4477 10.5523 28 10 28L5 28C4.44772 28 4 28.4477 4 29L4 36.5C4 38.433 5.567 40 7.5 40Z"/>
</mask>
<path d="M7.5 40C9.433 40 11 38.433 11 36.5L11 29C11 28.4477 10.5523 28 10 28L5 28C4.44772 28 4 28.4477 4 29L4 36.5C4 38.433 5.567 40 7.5 40Z" stroke="#152C5B" stroke-width="6" mask="url(#path-2-inside-1_36_558)"/>
<mask id="path-3-inside-2_36_558" fill="white">
<path d="M28.5 40C30.433 40 32 38.433 32 36.5L32 29C32 28.4477 31.5523 28 31 28L26 28C25.4477 28 25 28.4477 25 29L25 36.5C25 38.433 26.567 40 28.5 40Z"/>
</mask>
<path d="M28.5 40C30.433 40 32 38.433 32 36.5L32 29C32 28.4477 31.5523 28 31 28L26 28C25.4477 28 25 28.4477 25 29L25 36.5C25 38.433 26.567 40 28.5 40Z" stroke="#152C5B" stroke-width="6" mask="url(#path-3-inside-2_36_558)"/>
<path d="M12 13V18" stroke="#152C5B" stroke-width="3" stroke-linecap="round" stroke-linejoin="round"/>
<path d="M24 13V18" stroke="#152C5B" stroke-width="3" stroke-linecap="round" stroke-linejoin="round"/>
<mask id="path-6-inside-3_36_558" fill="white">
<path d="M12 14C14.2091 14 16 12.2091 16 10L16 7C16 6.44772 15.5523 6 15 6L9 6C8.44771 6 8 6.44772 8 7L8 10C8 12.2091 9.79086 14 12 14Z"/>
</mask>
<path d="M12 14C14.2091 14 16 12.2091 16 10L16 7C16 6.44772 15.5523 6 15 6L9 6C8.44771 6 8 6.44772 8 7L8 10C8 12.2091 9.79086 14 12 14Z" stroke="#FF498B" stroke-width="6" mask="url(#path-6-inside-3_36_558)"/>
<mask id="path-7-inside-4_36_558" fill="white">
<path d="M24 14C26.2091 14 28 12.2091 28 10L28 7C28 6.44772 27.5523 6 27 6L21 6C20.4477 6 20 6.44772 20 7L20 10C20 12.2091 21.7909 14 24 14Z"/>
</mask>
<path d="M24 14C26.2091 14 28 12.2091 28 10L28 7C28 6.44772 27.5523 6 27 6L21 6C20.4477 6 20 6.44772 20 7L20 10C20 12.2091 21.7909 14 24 14Z" stroke="#FF498B" stroke-width="6" mask="url(#path-7-inside-4_36_558)"/>
</svg>
