<svg width="48" height="48" viewBox="0 0 48 48" fill="none" xmlns="http://www.w3.org/2000/svg">
<mask id="path-1-inside-1_15_131" fill="white">
<path fill-rule="evenodd" clip-rule="evenodd" d="M18.8946 6C18.0567 6 17.3076 6.52233 17.0179 7.30859L15.6579 11H8C3.58172 11 0 14.5817 0 19V32C0 36.4183 3.58172 40 8 40H40C44.4183 40 48 36.4183 48 32V19C48 14.5817 44.4183 11 40 11H32.3421L30.9821 7.30859C30.6924 6.52233 29.9433 6 29.1054 6H18.8946Z"/>
</mask>
<path d="M17.0179 7.30859L19.8329 8.3457L19.8329 8.3457L17.0179 7.30859ZM15.6579 11V14H17.7498L18.4729 12.0371L15.6579 11ZM32.3421 11L29.5271 12.0371L30.2502 14H32.3421V11ZM30.9821 7.30859L28.1671 8.3457L28.1671 8.34571L30.9821 7.30859ZM19.8329 8.3457C19.6881 8.73884 19.3135 9 18.8946 9V3C16.7998 3 14.927 4.30582 14.2029 6.27147L19.8329 8.3457ZM18.4729 12.0371L19.8329 8.3457L14.2029 6.27147L12.8429 9.96288L18.4729 12.0371ZM8 14H15.6579V8H8V14ZM3 19C3 16.2386 5.23858 14 8 14V8C1.92487 8 -3 12.9249 -3 19H3ZM3 32V19H-3V32H3ZM8 37C5.23858 37 3 34.7614 3 32H-3C-3 38.0751 1.92487 43 8 43V37ZM40 37H8V43H40V37ZM45 32C45 34.7614 42.7614 37 40 37V43C46.0751 43 51 38.0751 51 32H45ZM45 19V32H51V19H45ZM40 14C42.7614 14 45 16.2386 45 19H51C51 12.9249 46.0751 8 40 8V14ZM32.3421 14H40V8H32.3421V14ZM28.1671 8.34571L29.5271 12.0371L35.1571 9.96288L33.7971 6.27147L28.1671 8.34571ZM29.1054 9C28.6865 9 28.3119 8.73884 28.1671 8.3457L33.7971 6.27148C33.073 4.30583 31.2002 3 29.1054 3V9ZM18.8946 9H29.1054V3H18.8946V9Z" fill="#152C5B" mask="url(#path-1-inside-1_15_131)"/>
<path d="M40 18H34" stroke="#152C5B" stroke-width="3" stroke-linecap="round" stroke-linejoin="round"/>
<circle cx="24" cy="23" r="6.5" stroke="#FF498B" stroke-width="3"/>
</svg>
