<svg width="36" height="35" viewBox="0 0 36 35" fill="none" xmlns="http://www.w3.org/2000/svg">
<path d="M16.0979 1.8541C16.6966 0.0114803 19.3034 0.0114799 19.9021 1.8541L22.7148 10.5106C22.9825 11.3347 23.7505 11.8926 24.6169 11.8926H33.7189C35.6564 11.8926 36.4619 14.3718 34.8945 15.5106L27.5308 20.8607C26.8298 21.37 26.5365 22.2727 26.8043 23.0967L29.6169 31.7533C30.2157 33.5959 28.1067 35.1282 26.5393 33.9894L19.1756 28.6393C18.4746 28.13 17.5254 28.13 16.8244 28.6393L9.46074 33.9894C7.89331 35.1282 5.78435 33.5959 6.38305 31.7533L9.19573 23.0967C9.46348 22.2727 9.17017 21.37 8.46919 20.8607L1.1055 15.5106C-0.46193 14.3718 0.343619 11.8926 2.28107 11.8926H11.3831C12.2495 11.8926 13.0175 11.3347 13.2852 10.5106L16.0979 1.8541Z" fill="#FFCC47"/>
</svg>
