<svg width="48" height="48" viewBox="0 0 48 48" fill="none" xmlns="http://www.w3.org/2000/svg">
<path d="M26.5 39.5C26.5 42.8137 23.8137 45.5 20.5 45.5C17.1863 45.5 14.5 42.8137 14.5 39.5C14.5 36.1863 17.1863 33.5 20.5 33.5C23.8137 33.5 26.5 36.1863 26.5 39.5Z" stroke="#FF498B" stroke-width="3"/>
<path d="M10 33C11.1161 31.8839 11.952 31.048 12.8279 30.1721C14.2563 28.7437 15.9977 27.6674 17.914 27.0287V27.0287C19.9172 26.3609 22.0828 26.3609 24.086 27.0287V27.0287C26.0023 27.6674 27.7436 28.7436 29.172 30.172L32 33" stroke="#152C5B" stroke-width="3" stroke-linecap="round"/>
<path d="M6 26C7.45065 24.5851 8.5421 23.5205 9.67924 22.4114C11.5946 20.5432 13.9144 19.1411 16.4589 18.3139V18.3139C19.0853 17.4599 21.9147 17.4599 24.5411 18.3139V18.3139C27.0856 19.1411 29.4054 20.5432 31.3207 22.4114L35 26" stroke="#152C5B" stroke-width="3" stroke-linecap="round"/>
<path d="M2 19C4.10296 17.0868 5.62984 15.6977 7.29904 14.1791C9.49629 12.1801 12.1113 10.6956 14.9539 9.83352L16.6469 9.32011C19.4851 8.45939 22.5149 8.45939 25.3531 9.32011L27.0461 9.83352C29.8887 10.6956 32.5037 12.18 34.7009 14.179L40 19" stroke="#152C5B" stroke-width="3" stroke-linecap="round"/>
</svg>
