<svg width="48" height="48" viewBox="0 0 48 48" fill="none" xmlns="http://www.w3.org/2000/svg">
<path d="M34.5 42C34.5 42.1718 34.3969 42.5743 33.657 43.1574C32.934 43.7271 31.7949 44.3058 30.2536 44.8196C27.1866 45.8419 22.8542 46.5 18 46.5C13.1458 46.5 8.8134 45.8419 5.74642 44.8196C4.20509 44.3058 3.06597 43.7271 2.34299 43.1574C1.6031 42.5743 1.5 42.1718 1.5 42C1.5 41.8282 1.6031 41.4257 2.34299 40.8426C3.06597 40.2729 4.20509 39.6942 5.74642 39.1804C8.8134 38.1581 13.1458 37.5 18 37.5C22.8542 37.5 27.1866 38.1581 30.2536 39.1804C31.7949 39.6942 32.934 40.2729 33.657 40.8426C34.3969 41.4257 34.5 41.8282 34.5 42Z" stroke="#152C5B" stroke-width="3"/>
<path d="M29.5 14.2418C29.5 17.9238 28.0516 24.7931 25.6541 30.7613C24.4594 33.735 23.069 36.3823 21.58 38.2582C20.05 40.1856 18.6606 41 17.5 41C16.3394 41 14.95 40.1856 13.4201 38.2582C11.931 36.3823 10.5406 33.735 9.34595 30.7613C6.94837 24.7931 5.5 17.9238 5.5 14.2418C5.5 7.12807 10.9472 1.5 17.5 1.5C24.0528 1.5 29.5 7.12807 29.5 14.2418Z" fill="white" stroke="#152C5B" stroke-width="3"/>
<circle cx="18" cy="14" r="4.5" stroke="#FF498B" stroke-width="3"/>
</svg>
